<svg width="281" height="280" viewBox="0 0 281 280" fill="none" xmlns="http://www.w3.org/2000/svg">
<path d="M243.248 2.8875C241.585 1.05 239.24 0 236.755 0H44.2555C41.788 0 39.4255 1.05 37.763 2.8875C36.118 4.7075 35.2955 7.1575 35.5405 9.625L61.7905 272.125C62.2455 276.605 66.008 280 70.5055 280H210.505C215.003 280 218.765 276.605 219.203 272.125L245.453 9.625C245.715 7.1575 244.91 4.7075 243.248 2.8875Z" fill="#ECEFF1"/>
<path d="M219.955 89.25L202.63 262.5H78.3805L58.9555 68.775C80.8305 61.775 114.08 57.05 140.505 78.75C166.055 99.75 198.255 95.9 219.955 89.25Z" fill="#60A5FA"/>
</svg>
